<svg width="29" height="43" viewBox="0 0 29 43" fill="none" xmlns="http://www.w3.org/2000/svg">
<path fill-rule="evenodd" clip-rule="evenodd" d="M25 2H4C2.89543 2 2 2.89543 2 4V39C2 40.1046 2.89543 41 4 41H25C26.1046 41 27 40.1046 27 39V4C27 2.89543 26.1046 2 25 2ZM4 0C1.79086 0 0 1.79086 0 4V39C0 41.2091 1.79086 43 4 43H25C27.2091 43 29 41.2091 29 39V4C29 1.79086 27.2091 0 25 0H4Z" fill="#404A53"/>
<path fill-rule="evenodd" clip-rule="evenodd" d="M22.925 8.55605L2.35834 2.47953L2.64168 1.52051L23.2084 7.59703C24.2709 7.91094 25 8.88669 25 9.99457V22.5H24V9.99457C24 9.32984 23.5625 8.7444 22.925 8.55605Z" fill="#404A53"/>
<path fill-rule="evenodd" clip-rule="evenodd" d="M22.925 34.944L2.35834 41.0205L2.64168 41.9795L23.2084 35.903C24.2709 35.5891 25 34.6133 25 33.5054V21H24V33.5054C24 34.1702 23.5625 34.7556 22.925 34.944Z" fill="#404A53"/>
<path fill-rule="evenodd" clip-rule="evenodd" d="M22 22.5L17.5 22.5C17.2239 22.5 17 22.2761 17 22C17 21.7239 17.2239 21.5 17.5 21.5L22 21.5C22.2761 21.5 22.5 21.7239 22.5 22C22.5 22.2761 22.2761 22.5 22 22.5Z" fill="#404A53"/>
</svg>
