<svg width="34" height="33" viewBox="0 0 34 33" fill="none" xmlns="http://www.w3.org/2000/svg">
<path fill-rule="evenodd" clip-rule="evenodd" d="M31 28L31 5C31 3.34315 29.6569 2 28 2L5 2C3.34315 2 2 3.34314 2 5L2 28C2 29.6569 3.34314 31 5 31L28 31C29.6569 31 31 29.6569 31 28ZM33 5C33 2.23858 30.7614 -9.78512e-08 28 -2.18557e-07L5 -1.22392e-06C2.23858 -1.34462e-06 -9.78512e-08 2.23857 -2.18557e-07 5L-1.22392e-06 28C-1.34462e-06 30.7614 2.23857 33 5 33L28 33C30.7614 33 33 30.7614 33 28L33 5Z" fill="#404A53"/>
<path fill-rule="evenodd" clip-rule="evenodd" d="M33.1654 16.492L2.21762 31.4501L1.78245 30.5498L30.8347 16.5079L1.78859 2.95306L2.21148 2.04687L33.1654 16.492Z" fill="#404A53"/>
<path fill-rule="evenodd" clip-rule="evenodd" d="M16.7421 0.584595L31.7002 31.5324L30.7999 31.9676L16.758 2.91534L3.20312 31.9614L2.29694 31.5385L16.7421 0.584595Z" fill="#404A53"/>
</svg>
