<svg width="29" height="43" viewBox="0 0 29 43" fill="none" xmlns="http://www.w3.org/2000/svg">
<path fill-rule="evenodd" clip-rule="evenodd" d="M4 2H25C26.1046 2 27 2.89543 27 4V39C27 40.1046 26.1046 41 25 41H4C2.89543 41 2 40.1046 2 39V4C2 2.89543 2.89543 2 4 2ZM25 0C27.2091 0 29 1.79086 29 4V39C29 41.2091 27.2091 43 25 43H4C1.79086 43 0 41.2091 0 39V4C0 1.79086 1.79086 0 4 0H25Z" fill="#404A53"/>
<path fill-rule="evenodd" clip-rule="evenodd" d="M6.07497 8.55605L26.6417 2.47953L26.3583 1.52051L5.79163 7.59703C4.72915 7.91094 3.99999 8.88669 3.99999 9.99457V22.5H4.99999V9.99457C4.99999 9.32984 5.43748 8.7444 6.07497 8.55605Z" fill="#404A53"/>
<path fill-rule="evenodd" clip-rule="evenodd" d="M6.07497 34.944L26.6417 41.0205L26.3583 41.9795L5.79163 35.903C4.72915 35.5891 3.99999 34.6133 3.99999 33.5054V21H4.99999V33.5054C4.99999 34.1702 5.43748 34.7556 6.07497 34.944Z" fill="#404A53"/>
<path fill-rule="evenodd" clip-rule="evenodd" d="M7 22.5L11.5 22.5C11.7761 22.5 12 22.2761 12 22C12 21.7239 11.7761 21.5 11.5 21.5L7 21.5C6.72386 21.5 6.5 21.7239 6.5 22C6.5 22.2761 6.72386 22.5 7 22.5Z" fill="#404A53"/>
</svg>
