<svg width="34" height="33" viewBox="0 0 34 33" fill="none" xmlns="http://www.w3.org/2000/svg">
<path fill-rule="evenodd" clip-rule="evenodd" d="M3 5L3 28C3 29.6569 4.34315 31 6 31L29 31C30.6569 31 32 29.6569 32 28L32 5C32 3.34314 30.6569 2 29 2L6 2C4.34314 2 3 3.34315 3 5ZM1 28C1 30.7614 3.23858 33 6 33L29 33C31.7614 33 34 30.7614 34 28L34 5C34 2.23858 31.7614 -1.34462e-06 29 -1.22392e-06L6 -2.18557e-07C3.23857 -9.78513e-08 0.999999 2.23857 0.999999 5L1 28Z" fill="#404A53"/>
<path fill-rule="evenodd" clip-rule="evenodd" d="M0.834625 16.508L31.7824 1.54986L32.2176 2.45021L3.16537 16.4921L32.2114 30.0469L31.7886 30.9531L0.834625 16.508Z" fill="#404A53"/>
</svg>
