<svg width="33" height="34" viewBox="0 0 33 34" fill="none" xmlns="http://www.w3.org/2000/svg">
<path fill-rule="evenodd" clip-rule="evenodd" d="M28 3H5C3.34315 3 2 4.34315 2 6V29C2 30.6569 3.34315 32 5 32H28C29.6569 32 31 30.6569 31 29V6C31 4.34315 29.6569 3 28 3ZM5 1C2.23858 1 0 3.23858 0 6V29C0 31.7614 2.23858 34 5 34H28C30.7614 34 33 31.7614 33 29V6C33 3.23858 30.7614 1 28 1H5Z" fill="#404A53"/>
<path fill-rule="evenodd" clip-rule="evenodd" d="M16.4921 0.834595L31.4502 31.7824L30.5498 32.2176L16.5079 3.16534L2.95309 32.2114L2.04691 31.7885L16.4921 0.834595Z" fill="#404A53"/>
</svg>
