<svg width="34" height="33" viewBox="0 0 34 33" fill="none" xmlns="http://www.w3.org/2000/svg">
<path fill-rule="evenodd" clip-rule="evenodd" d="M3 28L3 5C3 3.34315 4.34315 2 6 2L29 2C30.6569 2 32 3.34314 32 5L32 28C32 29.6569 30.6569 31 29 31L6 31C4.34315 31 3 29.6569 3 28ZM1 5C1 2.23858 3.23858 -9.78512e-08 6 -2.18557e-07L29 -1.22392e-06C31.7614 -1.34462e-06 34 2.23857 34 5L34 28C34 30.7614 31.7614 33 29 33L6 33C3.23858 33 1 30.7614 1 28L1 5Z" fill="#404A53"/>
<path fill-rule="evenodd" clip-rule="evenodd" d="M0.834595 16.492L31.7824 31.4501L32.2176 30.5498L3.16534 16.5079L32.2114 2.95306L31.7885 2.04687L0.834595 16.492Z" fill="#404A53"/>
<path fill-rule="evenodd" clip-rule="evenodd" d="M17.2579 0.584595L2.2998 31.5324L3.20015 31.9676L17.242 2.91534L30.7969 31.9614L31.7031 31.5385L17.2579 0.584595Z" fill="#404A53"/>
</svg>
